<svg width="24" height="24" viewBox="0 0 24 24" fill="none" xmlns="http://www.w3.org/2000/svg">
<path fill-rule="evenodd" clip-rule="evenodd" d="M5 5C5 5 12 5 15.5 8.5C16.667 9.667 16.667 13.167 16.667 13.167L13.167 16.667C13.167 16.667 9.667 16.667 8.5 15.5C5 12 5 5 5 5Z" stroke="url(#paint0_linear_107_4434)" stroke-width="2" stroke-linecap="round" stroke-linejoin="round"/>
<path fill-rule="evenodd" clip-rule="evenodd" d="M9.58575 12.4142C8.80475 11.6332 8.80475 10.3672 9.58575 9.58624C10.3668 8.80524 11.6328 8.80524 12.4138 9.58624C13.1948 10.3672 13.1948 11.6332 12.4138 12.4142C11.6328 13.1952 10.3668 13.1952 9.58575 12.4142Z" fill="url(#paint1_linear_107_4434)"/>
<path d="M13.167 16.667L15.5 19L19 15.5L16.667 13.167" stroke="url(#paint2_linear_107_4434)" stroke-width="2" stroke-linecap="round" stroke-linejoin="round"/>
<path d="M5 5L10.833 10.833" stroke="url(#paint3_linear_107_4434)" stroke-width="2" stroke-linecap="round" stroke-linejoin="round"/>
<defs>
<linearGradient id="paint0_linear_107_4434" x1="20.7907" y1="6.70982" x2="1.78152" y2="16.667" gradientUnits="userSpaceOnUse">
<stop stop-color="#A776FC"/>
<stop offset="0.9999" stop-color="#8239FF"/>
<stop offset="1" stop-color="white" stop-opacity="0"/>
</linearGradient>
<linearGradient id="paint1_linear_107_4434" x1="14.4131" y1="9.58662" x2="7.89669" y2="13" gradientUnits="userSpaceOnUse">
<stop stop-color="#A776FC"/>
<stop offset="0.9999" stop-color="#8239FF"/>
<stop offset="1" stop-color="white" stop-opacity="0"/>
</linearGradient>
<linearGradient id="paint2_linear_107_4434" x1="21.0617" y1="14.0218" x2="11.5579" y2="19" gradientUnits="userSpaceOnUse">
<stop stop-color="#A776FC"/>
<stop offset="0.9999" stop-color="#8239FF"/>
<stop offset="1" stop-color="white" stop-opacity="0"/>
</linearGradient>
<linearGradient id="paint3_linear_107_4434" x1="12.8947" y1="5.85484" x2="3.3909" y2="10.833" gradientUnits="userSpaceOnUse">
<stop stop-color="#A776FC"/>
<stop offset="0.9999" stop-color="#8239FF"/>
<stop offset="1" stop-color="white" stop-opacity="0"/>
</linearGradient>
</defs>
</svg>
