<svg width="22" height="22" viewBox="0 0 22 22" fill="none" xmlns="http://www.w3.org/2000/svg">
<path d="M11.0002 1.83398C9.29836 1.83398 7.66625 2.51002 6.46289 3.71338C5.25954 4.91674 4.5835 6.54885 4.5835 8.25065C4.5835 10.4323 5.67433 12.3482 7.3335 13.5123V15.584C7.3335 15.8271 7.43007 16.0603 7.60198 16.2322C7.77389 16.4041 8.00705 16.5007 8.25016 16.5007H13.7502C13.9933 16.5007 14.2264 16.4041 14.3983 16.2322C14.5703 16.0603 14.6668 15.8271 14.6668 15.584V13.5123C16.326 12.3482 17.4168 10.4323 17.4168 8.25065C17.4168 6.54885 16.7408 4.91674 15.5374 3.71338C14.3341 2.51002 12.702 1.83398 11.0002 1.83398ZM8.25016 19.2507C8.25016 19.4938 8.34674 19.7269 8.51865 19.8988C8.69056 20.0707 8.92371 20.1673 9.16683 20.1673H12.8335C13.0766 20.1673 13.3098 20.0707 13.4817 19.8988C13.6536 19.7269 13.7502 19.4938 13.7502 19.2507V18.334H8.25016V19.2507Z" fill="#878787"/>
</svg>
