<svg width="174" height="48" viewBox="0 0 174 48" fill="none" xmlns="http://www.w3.org/2000/svg">
<rect x="50" width="48" height="50" rx="10" transform="rotate(90 50 0)" fill="#2D2D2D"/>
<path d="M24.9998 31.7917L23.7915 30.6917C19.4998 26.8 16.6665 24.225 16.6665 21.0833C16.6665 18.5083 18.6832 16.5 21.2498 16.5C22.6998 16.5 24.0915 17.175 24.9998 18.2333C25.9082 17.175 27.2998 16.5 28.7498 16.5C31.3165 16.5 33.3332 18.5083 33.3332 21.0833C33.3332 24.225 30.4998 26.8 26.2082 30.6917L24.9998 31.7917Z" fill="#878787"/>
<rect x="112" width="48" height="50" rx="10" transform="rotate(90 112 0)" fill="#2D2D2D"/>
<path d="M87.0002 14.834C85.2984 14.834 83.6663 15.51 82.4629 16.7134C81.2595 17.9167 80.5835 19.5488 80.5835 21.2507C80.5835 23.4323 81.6743 25.3482 83.3335 26.5123V28.584C83.3335 28.8271 83.4301 29.0603 83.602 29.2322C83.7739 29.4041 84.007 29.5007 84.2502 29.5007H89.7502C89.9933 29.5007 90.2264 29.4041 90.3983 29.2322C90.5703 29.0603 90.6668 28.8271 90.6668 28.584V26.5123C92.326 25.3482 93.4168 23.4323 93.4168 21.2507C93.4168 19.5488 92.7408 17.9167 91.5374 16.7134C90.3341 15.51 88.702 14.834 87.0002 14.834ZM84.2502 32.2507C84.2502 32.4938 84.3467 32.7269 84.5186 32.8988C84.6906 33.0707 84.9237 33.1673 85.1668 33.1673H88.8335C89.0766 33.1673 89.3098 33.0707 89.4817 32.8988C89.6536 32.7269 89.7502 32.4938 89.7502 32.2507V31.334H84.2502V32.2507Z" fill="#878787"/>
<rect x="174" width="48" height="50" rx="10" transform="rotate(90 174 0)" fill="#2D2D2D"/>
<path d="M146 32L146 16" stroke="#878787" stroke-width="2" stroke-linecap="round" stroke-linejoin="round"/>
<path d="M148 20L144 20" stroke="#878787" stroke-width="2" stroke-linecap="round" stroke-linejoin="round"/>
<path d="M152 32L152 16" stroke="#878787" stroke-width="2" stroke-linecap="round" stroke-linejoin="round"/>
<path d="M154 28L150 28" stroke="#878787" stroke-width="2" stroke-linecap="round" stroke-linejoin="round"/>
</svg>
