<svg width="24" height="24" viewBox="0 0 24 24" fill="none" xmlns="http://www.w3.org/2000/svg">
<g clip-path="url(#clip0_107_4425)">
<path fill-rule="evenodd" clip-rule="evenodd" d="M9 18C5.533 18 5 17.5 5 16C5 14.5 5.533 14 9 14C12.467 14 13 14.5 13 16C13 17.5 12.467 18 9 18Z" stroke="url(#paint0_linear_107_4425)" stroke-width="2" stroke-linecap="round" stroke-linejoin="round"/>
<path fill-rule="evenodd" clip-rule="evenodd" d="M7 14C3.533 14 3 13.5 3 12C3 10.5 3.533 10 7 10C10.467 10 11 10.5 11 12C11 13.5 10.467 14 7 14Z" stroke="url(#paint1_linear_107_4425)" stroke-width="2" stroke-linecap="round" stroke-linejoin="round"/>
<path fill-rule="evenodd" clip-rule="evenodd" d="M9 10C5.533 10 5 9.5 5 8C5 6.5 5.533 6 9 6C12.467 6 13 6.5 13 8C13 9.5 12.467 10 9 10Z" stroke="url(#paint2_linear_107_4425)" stroke-width="2" stroke-linecap="round" stroke-linejoin="round"/>
<path fill-rule="evenodd" clip-rule="evenodd" d="M19 18C18 18 14 14 14 13C14 12 15 11 16 11C17 11 21 15 21 16C21 17 20 18 19 18Z" stroke="url(#paint3_linear_107_4425)" stroke-width="2" stroke-linecap="round" stroke-linejoin="round"/>
</g>
<defs>
<linearGradient id="paint0_linear_107_4425" x1="15.8276" y1="14.5862" x2="7.90826" y2="22.8826" gradientUnits="userSpaceOnUse">
<stop stop-color="#A776FC"/>
<stop offset="0.9999" stop-color="#8239FF"/>
<stop offset="1" stop-color="white" stop-opacity="0"/>
</linearGradient>
<linearGradient id="paint1_linear_107_4425" x1="13.8276" y1="10.5862" x2="5.90826" y2="18.8826" gradientUnits="userSpaceOnUse">
<stop stop-color="#A776FC"/>
<stop offset="0.9999" stop-color="#8239FF"/>
<stop offset="1" stop-color="white" stop-opacity="0"/>
</linearGradient>
<linearGradient id="paint2_linear_107_4425" x1="15.8276" y1="6.58621" x2="7.90826" y2="14.8826" gradientUnits="userSpaceOnUse">
<stop stop-color="#A776FC"/>
<stop offset="0.9999" stop-color="#8239FF"/>
<stop offset="1" stop-color="white" stop-opacity="0"/>
</linearGradient>
<linearGradient id="paint3_linear_107_4425" x1="23.4741" y1="12.0259" x2="12.069" y2="18" gradientUnits="userSpaceOnUse">
<stop stop-color="#A776FC"/>
<stop offset="0.9999" stop-color="#8239FF"/>
<stop offset="1" stop-color="white" stop-opacity="0"/>
</linearGradient>
<clipPath id="clip0_107_4425">
<rect width="24" height="24" fill="white"/>
</clipPath>
</defs>
</svg>
