<svg width="24" height="24" viewBox="0 0 24 24" fill="none" xmlns="http://www.w3.org/2000/svg">
<g clip-path="url(#clip0_107_4416)">
<path d="M12 4H15" stroke="url(#paint0_linear_107_4416)" stroke-width="2" stroke-linecap="round" stroke-linejoin="round"/>
<path fill-rule="evenodd" clip-rule="evenodd" d="M9 11C9 11.553 8.552 12 8 12C7.448 12 7 11.553 7 11C7 10.447 7.448 10 8 10C8.552 10 9 10.447 9 11Z" fill="url(#paint1_linear_107_4416)"/>
<path fill-rule="evenodd" clip-rule="evenodd" d="M12 20C5.067 20 4 18.375 4 13.5C4 8.625 5.067 7 12 7C18.933 7 20 8.625 20 13.5C20 18.375 18.933 20 12 20Z" stroke="url(#paint2_linear_107_4416)" stroke-width="2" stroke-linecap="round" stroke-linejoin="round"/>
<path fill-rule="evenodd" clip-rule="evenodd" d="M16 13.5C16 14.881 14.881 16 13.5 16C12.119 16 11 14.881 11 13.5C11 12.119 12.119 11 13.5 11C14.881 11 16 12.119 16 13.5Z" stroke="url(#paint3_linear_107_4416)" stroke-width="2" stroke-linecap="round" stroke-linejoin="round"/>
</g>
<defs>
<linearGradient id="paint0_linear_107_4416" x1="16.0603" y1="4.14655" x2="14.2649" y2="6.96795" gradientUnits="userSpaceOnUse">
<stop stop-color="#A776FC"/>
<stop offset="0.9999" stop-color="#8239FF"/>
<stop offset="1" stop-color="white" stop-opacity="0"/>
</linearGradient>
<linearGradient id="paint1_linear_107_4416" x1="9.7069" y1="10.2931" x2="6.44828" y2="12" gradientUnits="userSpaceOnUse">
<stop stop-color="#A776FC"/>
<stop offset="0.9999" stop-color="#8239FF"/>
<stop offset="1" stop-color="white" stop-opacity="0"/>
</linearGradient>
<linearGradient id="paint2_linear_107_4416" x1="25.6552" y1="8.90517" x2="2.1873" y2="24.0346" gradientUnits="userSpaceOnUse">
<stop stop-color="#A776FC"/>
<stop offset="0.9999" stop-color="#8239FF"/>
<stop offset="1" stop-color="white" stop-opacity="0"/>
</linearGradient>
<linearGradient id="paint3_linear_107_4416" x1="17.7672" y1="11.7328" x2="9.62069" y2="16" gradientUnits="userSpaceOnUse">
<stop stop-color="#A776FC"/>
<stop offset="0.9999" stop-color="#8239FF"/>
<stop offset="1" stop-color="white" stop-opacity="0"/>
</linearGradient>
<clipPath id="clip0_107_4416">
<rect width="24" height="24" fill="white"/>
</clipPath>
</defs>
</svg>
