<svg width="24" height="20" viewBox="0 0 24 20" fill="none" xmlns="http://www.w3.org/2000/svg">
<path fill-rule="evenodd" clip-rule="evenodd" d="M0.96328 8.75065C0.96328 4.37841 5.0604 0.833984 10.1144 0.833984C15.1684 0.833984 19.2655 4.37841 19.2655 8.75065C19.2655 10.6366 18.5032 12.3685 17.2306 13.7284L20.7689 16.7894C21.1451 17.1148 21.1451 17.6424 20.7689 17.9679C20.3927 18.2933 19.7828 18.2933 19.4066 17.9679L15.8684 14.9069C14.2964 16.0078 12.2944 16.6673 10.1144 16.6673C5.0604 16.6673 0.96328 13.1229 0.96328 8.75065ZM10.1144 2.50065C6.12441 2.50065 2.88983 5.29889 2.88983 8.75065C2.88983 12.2024 6.12441 15.0007 10.1144 15.0007C14.1044 15.0007 17.339 12.2024 17.339 8.75065C17.339 5.29889 14.1044 2.50065 10.1144 2.50065ZM6.70871 5.38767C7.57928 4.63458 8.78469 4.16732 10.1144 4.16732C11.4441 4.16732 12.6495 4.63458 13.5201 5.38769C13.8963 5.71312 13.8963 6.24076 13.5201 6.5662C13.1439 6.89163 12.534 6.89163 12.1578 6.5662C11.6338 6.11289 10.9127 5.83398 10.1144 5.83398C9.31616 5.83398 8.59501 6.11288 8.07095 6.56622C7.69475 6.89164 7.08484 6.89163 6.70867 6.56618C6.3325 6.24073 6.33252 5.71309 6.70871 5.38767Z" fill="black" fill-opacity="0.4"/>
</svg>
