<svg width="24" height="24" viewBox="0 0 24 24" fill="none" xmlns="http://www.w3.org/2000/svg">
<g clip-path="url(#clip0_107_4410)">
<path fill-rule="evenodd" clip-rule="evenodd" d="M12 20C11 20 4 13 4 12V5C4 4.447 4.448 4 5 4H12C13 4 20 11 20 12C20 13 13 20 12 20Z" stroke="url(#paint0_linear_107_4410)" stroke-width="2" stroke-linecap="round" stroke-linejoin="round"/>
<path fill-rule="evenodd" clip-rule="evenodd" d="M9 8C9 8.553 8.552 9 8 9C7.448 9 7 8.553 7 8C7 7.447 7.448 7 8 7C8.552 7 9 7.447 9 8Z" fill="url(#paint1_linear_107_4410)"/>
</g>
<defs>
<linearGradient id="paint0_linear_107_4410" x1="25.6552" y1="6.34483" x2="-0.413794" y2="20" gradientUnits="userSpaceOnUse">
<stop stop-color="#A776FC"/>
<stop offset="0.9999" stop-color="#8239FF"/>
<stop offset="1" stop-color="white" stop-opacity="0"/>
</linearGradient>
<linearGradient id="paint1_linear_107_4410" x1="9.7069" y1="7.2931" x2="6.44828" y2="9" gradientUnits="userSpaceOnUse">
<stop stop-color="#A776FC"/>
<stop offset="0.9999" stop-color="#8239FF"/>
<stop offset="1" stop-color="white" stop-opacity="0"/>
</linearGradient>
<clipPath id="clip0_107_4410">
<rect width="24" height="24" fill="white"/>
</clipPath>
</defs>
</svg>
