<svg width="24" height="24" viewBox="0 0 24 24" fill="none" xmlns="http://www.w3.org/2000/svg">
<g clip-path="url(#clip0_107_4401)">
<path fill-rule="evenodd" clip-rule="evenodd" d="M4 6L9 4L15 6L20 4V18L15 20L9 18L4 20V6Z" stroke="white" stroke-width="2" stroke-linecap="round" stroke-linejoin="round"/>
<path d="M13 13L17 9" stroke="white" stroke-width="2" stroke-linecap="round" stroke-linejoin="round"/>
<path d="M13 9L17 13" stroke="white" stroke-width="2" stroke-linecap="round" stroke-linejoin="round"/>
<path fill-rule="evenodd" clip-rule="evenodd" d="M12 11C12 11.553 11.553 12 11 12C10.447 12 10 11.553 10 11C10 10.447 10.447 10 11 10C11.553 10 12 10.447 12 11Z" fill="white"/>
<path fill-rule="evenodd" clip-rule="evenodd" d="M9 12C9 12.553 8.553 13 8 13C7.447 13 7 12.553 7 12C7 11.447 7.447 11 8 11C8.553 11 9 11.447 9 12Z" fill="white"/>
<path fill-rule="evenodd" clip-rule="evenodd" d="M8 15C8 15.553 7.553 16 7 16C6.447 16 6 15.553 6 15C6 14.447 6.447 14 7 14C7.553 14 8 14.447 8 15Z" fill="white"/>
</g>
<defs>
<clipPath id="clip0_107_4401">
<rect width="24" height="24" fill="white"/>
</clipPath>
</defs>
</svg>
