<svg width="24" height="24" viewBox="0 0 24 24" fill="none" xmlns="http://www.w3.org/2000/svg">
<g clip-path="url(#clip0_107_4419)">
<path fill-rule="evenodd" clip-rule="evenodd" d="M12 18C5.25 18 3 16.5 3 12C3 7.5 5.25 6 12 6C18.75 6 21 7.5 21 12C21 16.5 18.75 18 12 18Z" stroke="url(#paint0_linear_107_4419)" stroke-width="2" stroke-linecap="round" stroke-linejoin="round"/>
<path d="M6 12H10" stroke="url(#paint1_linear_107_4419)" stroke-width="2" stroke-linecap="round" stroke-linejoin="round"/>
<path d="M8 10V14" stroke="url(#paint2_linear_107_4419)" stroke-width="2" stroke-linecap="round" stroke-linejoin="round"/>
<path fill-rule="evenodd" clip-rule="evenodd" d="M17 10C17 10.553 16.552 11 16 11C15.448 11 15 10.553 15 10C15 9.447 15.448 9 16 9C16.552 9 17 9.447 17 10Z" fill="url(#paint3_linear_107_4419)"/>
<path fill-rule="evenodd" clip-rule="evenodd" d="M15 12C15 12.553 14.552 13 14 13C13.448 13 13 12.553 13 12C13 11.447 13.448 11 14 11C14.552 11 15 11.447 15 12Z" fill="url(#paint4_linear_107_4419)"/>
<path fill-rule="evenodd" clip-rule="evenodd" d="M17 14C17 14.553 16.552 15 16 15C15.448 15 15 14.553 15 14C15 13.447 15.448 13 16 13C16.552 13 17 13.447 17 14Z" fill="url(#paint5_linear_107_4419)"/>
<path fill-rule="evenodd" clip-rule="evenodd" d="M19 12C19 12.553 18.552 13 18 13C17.448 13 17 12.553 17 12C17 11.447 17.448 11 18 11C18.552 11 19 11.447 19 12Z" fill="url(#paint6_linear_107_4419)"/>
</g>
<defs>
<linearGradient id="paint0_linear_107_4419" x1="27.3621" y1="7.75862" x2="4.25362" y2="25.9153" gradientUnits="userSpaceOnUse">
<stop stop-color="#A776FC"/>
<stop offset="0.9999" stop-color="#8239FF"/>
<stop offset="1" stop-color="white" stop-opacity="0"/>
</linearGradient>
<linearGradient id="paint1_linear_107_4419" x1="11.4138" y1="12.1466" x2="9.87291" y2="15.3751" gradientUnits="userSpaceOnUse">
<stop stop-color="#A776FC"/>
<stop offset="0.9999" stop-color="#8239FF"/>
<stop offset="1" stop-color="white" stop-opacity="0"/>
</linearGradient>
<linearGradient id="paint2_linear_107_4419" x1="9.35345" y1="10.5862" x2="7.3121" y2="10.8535" gradientUnits="userSpaceOnUse">
<stop stop-color="#A776FC"/>
<stop offset="0.9999" stop-color="#8239FF"/>
<stop offset="1" stop-color="white" stop-opacity="0"/>
</linearGradient>
<linearGradient id="paint3_linear_107_4419" x1="17.7069" y1="9.2931" x2="14.4483" y2="11" gradientUnits="userSpaceOnUse">
<stop stop-color="#A776FC"/>
<stop offset="0.9999" stop-color="#8239FF"/>
<stop offset="1" stop-color="white" stop-opacity="0"/>
</linearGradient>
<linearGradient id="paint4_linear_107_4419" x1="15.7069" y1="11.2931" x2="12.4483" y2="13" gradientUnits="userSpaceOnUse">
<stop stop-color="#A776FC"/>
<stop offset="0.9999" stop-color="#8239FF"/>
<stop offset="1" stop-color="white" stop-opacity="0"/>
</linearGradient>
<linearGradient id="paint5_linear_107_4419" x1="17.7069" y1="13.2931" x2="14.4483" y2="15" gradientUnits="userSpaceOnUse">
<stop stop-color="#A776FC"/>
<stop offset="0.9999" stop-color="#8239FF"/>
<stop offset="1" stop-color="white" stop-opacity="0"/>
</linearGradient>
<linearGradient id="paint6_linear_107_4419" x1="19.7069" y1="11.2931" x2="16.4483" y2="13" gradientUnits="userSpaceOnUse">
<stop stop-color="#A776FC"/>
<stop offset="0.9999" stop-color="#8239FF"/>
<stop offset="1" stop-color="white" stop-opacity="0"/>
</linearGradient>
<clipPath id="clip0_107_4419">
<rect width="24" height="24" fill="white"/>
</clipPath>
</defs>
</svg>
